<svg xmlns="http://www.w3.org/2000/svg" xmlns:xlink="http://www.w3.org/1999/xlink" width="1587" zoomAndPan="magnify" viewBox="0 0 1190.25 1683.749945" height="2245" preserveAspectRatio="xMidYMid meet" version="1.0"><defs><g/><clipPath id="4a65298ffe"><path d="M 79.199219 786 L 1110.550781 786 L 1110.550781 1002.585938 L 79.199219 1002.585938 Z M 79.199219 786 " clip-rule="nonzero"/></clipPath></defs><g clip-path="url(#4a65298ffe)"><path fill="#e5975b" d="M 131.023438 1002.355469 C 133.640625 1001.214844 131.023438 1000.84375 132.519531 1000.46875 C 132.894531 1000.085938 132.894531 999.710938 132.894531 998.957031 C 132.519531 997.824219 134.714844 994.398438 139.273438 988.390625 C 144.84375 984.625 147.816406 978.964844 144.46875 972.546875 C 136.265625 956.703125 125.792969 951.050781 116.457031 954.066406 C 110.476562 955.953125 107.121094 955.570312 106 952.179688 C 105.253906 949.164062 107.824219 946.894531 113.839844 945.007812 L 116.082031 944.257812 C 103.386719 942.375 95.542969 936.335938 92.554688 926.144531 C 90.683594 920.109375 90.683594 916.71875 92.179688 915.960938 C 95.535156 915.207031 95.160156 913.320312 90.683594 911.058594 C 86.574219 910.300781 86.199219 908.414062 89.191406 905.78125 C 92.179688 902.742188 92.925781 898.964844 91.433594 894.457031 C 89.9375 889.554688 87.320312 886.917969 83.226562 886.160156 C 81.40625 885.777344 82.105469 885.03125 85.46875 884.273438 C 85.796875 883.839844 85.996094 883.355469 86.0625 882.816406 C 86.128906 882.277344 86.054688 881.757812 85.84375 881.257812 C 85.46875 879.371094 84.722656 878.613281 84.019531 878.996094 C 83.335938 877.402344 83.210938 875.769531 83.648438 874.089844 C 84.394531 872.578125 86.636719 871.074219 91.121094 869.535156 C 95.226562 868.402344 97.503906 867.648438 97.503906 867.648438 C 94.972656 867.816406 92.484375 867.5625 90.039062 866.890625 C 82.5625 865.386719 79.207031 863.5 79.207031 863.5 C 79.207031 863.5 80.703125 860.480469 83.683594 854.820312 C 84.800781 852.558594 87.417969 850.296875 91.53125 848.027344 C 95.636719 846.140625 104.980469 842.75 119.921875 839.351562 C 134.863281 836.332031 145.316406 834.445312 150.914062 832.566406 C 156.523438 831.054688 159.511719 829.167969 159.886719 827.28125 C 162.492188 823.507812 165.105469 821.242188 167.726562 820.488281 C 169.96875 819.742188 175.566406 818.984375 183.789062 818.226562 C 188.261719 817.851562 193.492188 817.476562 199.476562 817.097656 C 205.449219 816.714844 210.308594 815.96875 213.671875 814.835938 C 217.773438 813.324219 471.007812 812.195312 479.230469 810.679688 C 486.761719 809.171875 494.359375 808.164062 502.023438 807.664062 C 508.742188 807.664062 519.953125 807.289062 536.382812 806.914062 C 552.789062 806.914062 569.628906 806.160156 587.175781 805.402344 C 616.683594 803.886719 660.011719 803.515625 716.789062 803.886719 C 773.929688 804.273438 841.160156 805.027344 919.230469 805.402344 C 938.273438 806.160156 958.429688 806.160156 980.109375 805.027344 C 1002.140625 803.886719 1017.832031 802.757812 1027.914062 801.628906 C 1037.609375 800.539062 1047.332031 800.160156 1057.085938 800.496094 C 1065.679688 801.253906 1070.15625 802.382812 1070.902344 804.273438 C 1071.277344 805.777344 1073.894531 808.046875 1078.378906 810.304688 C 1080.140625 810.585938 1081.882812 810.964844 1083.601562 811.4375 C 1083.230469 811.820312 1082.109375 814.082031 1080.613281 818.226562 C 1079.492188 824.261719 1077.632812 827.664062 1075.390625 828.410156 C 1070.15625 829.925781 1067.539062 831.445312 1067.539062 832.96875 C 1067.539062 834.472656 1069.363281 835.230469 1073.519531 835.988281 C 1091.078125 836.359375 1100.785156 839.003906 1102.691406 844.28125 C 1103.441406 846.550781 1100.867188 850.316406 1094.488281 855.222656 C 1090.386719 859.378906 1088.890625 861.601562 1091.132812 862.011719 C 1092.363281 862.640625 1093.429688 863.472656 1094.335938 864.519531 C 1095.238281 865.5625 1095.914062 866.738281 1096.355469 868.046875 C 1097.851562 871.074219 1097.105469 872.605469 1094.53125 873.707031 C 1091.179688 874.464844 1091.550781 876.351562 1096.027344 878.613281 C 1100.511719 883.171875 1102.410156 885.777344 1102.753906 886.535156 C 1103.128906 887.664062 1100.933594 888.796875 1096.777344 889.9375 C 1094.953125 890.308594 1094.953125 892.953125 1096.027344 897.101562 C 1096.402344 898.230469 1097.523438 898.230469 1099.019531 897.859375 C 1099.367188 897.664062 1099.742188 897.566406 1100.140625 897.566406 C 1100.539062 897.566406 1100.910156 897.664062 1101.261719 897.859375 C 1101.632812 898.230469 1103.128906 897.859375 1104.625 897.476562 C 1105.746094 898.230469 1106.859375 898.605469 1107.980469 899.363281 C 1109.800781 899.746094 1110.59375 900.492188 1110.222656 902.003906 C 1109.980469 902.816406 1109.5625 903.523438 1108.96875 904.125 C 1108.371094 904.726562 1107.667969 905.148438 1106.859375 905.398438 C 1102.382812 904.648438 1098.652344 905.78125 1096.402344 907.667969 C 1094.578125 909.925781 1094.578125 911.8125 1097.148438 914.046875 C 1100.140625 914.804688 1099.390625 915.933594 1095.324219 917.449219 C 1091.222656 916.691406 1089.730469 917.066406 1090.101562 918.953125 C 1092.710938 921.96875 1090.476562 924.613281 1082.628906 926.875 C 1075.160156 929.136719 1071.796875 932.152344 1072.546875 935.550781 C 1073.667969 939.328125 1072.546875 939.699219 1068.808594 937.058594 C 1066.9375 936.683594 1064.707031 935.925781 1062.089844 935.550781 C 1059.472656 934.796875 1056.480469 935.167969 1053.117188 935.925781 C 1050.886719 938.570312 1048.640625 939.699219 1045.652344 939.699219 C 1043.386719 939.71875 1041.148438 939.972656 1038.933594 940.457031 C 1038.558594 938.570312 1033.703125 938.570312 1024.738281 940.457031 C 1016.148438 942.339844 1010.917969 943.472656 1009.050781 943.847656 C 998.96875 944.980469 993.734375 946.117188 992.242188 946.867188 C 991.121094 947.621094 991.492188 950.265625 992.613281 954.789062 C 994.109375 960.074219 998.996094 962.710938 1006.433594 963.09375 C 1014.273438 963.847656 1027.722656 962.335938 1047.519531 958.945312 C 1053.636719 957.292969 1059.859375 956.410156 1066.191406 956.300781 C 1071.453125 955.902344 1076.679688 956.152344 1081.878906 957.058594 C 1088.609375 957.058594 1092.710938 956.675781 1094.953125 955.925781 C 1096.046875 955.546875 1097.019531 954.957031 1097.863281 954.164062 C 1098.710938 953.371094 1099.359375 952.4375 1099.8125 951.367188 C 1100.1875 949.484375 1100.933594 950.238281 1102.054688 953.628906 C 1102.425781 958.1875 1101.679688 961.179688 1099.8125 962.308594 C 1097.570312 963.066406 1089.730469 966.082031 1075.910156 970.230469 C 1065.078125 973.621094 1053.492188 977.023438 1041.914062 980.039062 C 1029.964844 983.058594 1019.125 985.699219 1009.425781 987.203125 C 999.726562 988.707031 991.492188 989.847656 985.148438 990.222656 C 978.765625 990.980469 975.429688 990.605469 975.058594 989.847656 C 974.683594 988.335938 973.234375 987.585938 970.207031 987.960938 C 967.480469 988.28125 964.746094 988.40625 962.003906 988.335938 C 953.042969 989.089844 936.230469 989.472656 911.957031 989.472656 C 885.09375 989.398438 858.324219 987.761719 831.652344 984.570312 C 815.242188 983.8125 802.480469 983.8125 793.179688 983.429688 C 682.246094 981.167969 255.332031 999.273438 131.351562 1002.300781 Z M 1000.535156 791.492188 C 996.433594 792.996094 994.15625 793.378906 993.816406 792.246094 C 993.269531 792.097656 992.769531 791.84375 992.324219 791.492188 C 990.082031 790.359375 988.960938 791.109375 988.585938 794.132812 C 984.484375 795.265625 981.867188 794.507812 981.121094 791.863281 C 979.246094 792.625 970.65625 793 955.347656 792.996094 C 940.035156 792.996094 921.355469 792.621094 899.320312 791.492188 C 863.464844 790.359375 838.441406 789.605469 824.25 789.230469 C 810.054688 788.847656 805.195312 788.089844 809.308594 786.960938 C 810.054688 786.585938 820.886719 786.210938 840.675781 786.210938 L 907.535156 786.210938 C 932.148438 786.210938 954.226562 786.585938 974.765625 786.960938 C 994.941406 787.34375 1005.023438 788.089844 1005.394531 788.847656 C 1007.21875 788.089844 1007.21875 788.472656 1006.144531 789.230469 C 1004.382812 790.25 1002.511719 791 1000.535156 791.492188 Z M 1051.339844 838.648438 C 1055.8125 837.136719 1057.679688 835.617188 1056.9375 834.089844 C 1056.410156 833.753906 1055.910156 833.378906 1055.441406 832.960938 C 1054.320312 832.585938 1052.460938 832.585938 1049.847656 833.332031 L 1044.613281 834.847656 C 1045.359375 836.734375 1046.109375 837.109375 1047.601562 836.734375 C 1048.726562 836.351562 1050.21875 837.109375 1051.339844 838.621094 Z M 931.445312 962.363281 C 929.203125 960.851562 926.214844 960.851562 922.847656 961.988281 C 920.984375 962.367188 920.234375 963.121094 920.605469 964.25 C 920.980469 965.007812 922.429688 965.007812 924.71875 964.25 C 928.828125 965.007812 931.445312 965.007812 932.921875 964.625 C 934.042969 964.25 933.671875 963.492188 931.4375 962.363281 Z M 150.066406 949.535156 C 149.167969 948.917969 148.171875 948.664062 147.085938 948.78125 C 145.589844 949.539062 144.84375 950.289062 144.84375 951.023438 C 145.039062 951.433594 145.289062 951.8125 145.589844 952.152344 L 147.460938 952.152344 C 148.578125 952.550781 149.695312 952.550781 150.816406 952.152344 C 153.058594 953.285156 154.550781 953.65625 154.925781 952.902344 C 154.925781 952.527344 153.429688 951.023438 150.066406 949.507812 Z M 150.066406 949.535156 " fill-opacity="1" fill-rule="evenodd"/></g><g fill="#000000" fill-opacity="1"><g transform="translate(223.583916, 923.124881)"><g><path d="M 25.890625 0 L 13.90625 0 L 1.484375 -54.21875 L 12.171875 -54.21875 L 20.359375 -16.09375 L 21.28125 -16.09375 L 31 -54.21875 L 40.171875 -54.21875 L 50.0625 -16.09375 L 51 -16.09375 L 59.234375 -54.21875 L 69.53125 -54.21875 L 57.15625 0 L 45.140625 0 L 35.640625 -34.96875 L 34.859375 -34.96875 Z M 25.890625 0 "/></g></g></g><g fill="#000000" fill-opacity="1"><g transform="translate(294.562881, 923.124881)"><g><path d="M 5.890625 0 L 5.890625 -57.328125 L 16.171875 -57.328125 L 16.171875 -35.5625 L 16.953125 -35.421875 C 18.304688 -37.421875 19.972656 -38.960938 21.953125 -40.046875 C 23.929688 -41.140625 26.316406 -41.6875 29.109375 -41.6875 C 38.140625 -41.6875 42.65625 -36.566406 42.65625 -26.328125 L 42.65625 0 L 32.375 0 L 32.375 -25.03125 C 32.375 -27.820312 31.816406 -29.847656 30.703125 -31.109375 C 29.585938 -32.367188 27.859375 -33 25.515625 -33 C 22.648438 -33 20.375 -32.039062 18.6875 -30.125 C 17.007812 -28.21875 16.171875 -25.234375 16.171875 -21.171875 L 16.171875 0 Z M 5.890625 0 "/></g></g></g><g fill="#000000" fill-opacity="1"><g transform="translate(342.475536, 923.124881)"><g><path d="M 15.953125 0.78125 C 13.328125 0.78125 11.050781 0.300781 9.125 -0.65625 C 7.195312 -1.625 5.710938 -3.039062 4.671875 -4.90625 C 3.628906 -6.78125 3.109375 -9.023438 3.109375 -11.640625 C 3.109375 -14.066406 3.628906 -16.101562 4.671875 -17.75 C 5.710938 -19.394531 7.316406 -20.738281 9.484375 -21.78125 C 11.660156 -22.832031 14.507812 -23.644531 18.03125 -24.21875 C 20.476562 -24.613281 22.335938 -25.046875 23.609375 -25.515625 C 24.878906 -25.984375 25.734375 -26.515625 26.171875 -27.109375 C 26.617188 -27.703125 26.84375 -28.457031 26.84375 -29.375 C 26.84375 -30.6875 26.382812 -31.6875 25.46875 -32.375 C 24.5625 -33.070312 23.046875 -33.421875 20.921875 -33.421875 C 18.640625 -33.421875 16.472656 -32.910156 14.421875 -31.890625 C 12.367188 -30.878906 10.59375 -29.546875 9.09375 -27.890625 L 8.34375 -27.890625 L 4.046875 -34.375 C 6.117188 -36.675781 8.648438 -38.46875 11.640625 -39.75 C 14.628906 -41.039062 17.894531 -41.6875 21.4375 -41.6875 C 26.851562 -41.6875 30.769531 -40.535156 33.1875 -38.234375 C 35.613281 -35.929688 36.828125 -32.671875 36.828125 -28.453125 L 36.828125 -10.6875 C 36.828125 -8.851562 37.628906 -7.9375 39.234375 -7.9375 C 39.859375 -7.9375 40.46875 -8.046875 41.0625 -8.265625 L 41.578125 -8.125 L 42.3125 -0.96875 C 41.75 -0.59375 40.957031 -0.285156 39.9375 -0.046875 C 38.925781 0.179688 37.816406 0.296875 36.609375 0.296875 C 34.160156 0.296875 32.25 -0.171875 30.875 -1.109375 C 29.5 -2.046875 28.515625 -3.519531 27.921875 -5.53125 L 27.140625 -5.59375 C 25.140625 -1.34375 21.410156 0.78125 15.953125 0.78125 Z M 19.203125 -6.890625 C 21.578125 -6.890625 23.472656 -7.6875 24.890625 -9.28125 C 26.316406 -10.882812 27.03125 -13.109375 27.03125 -15.953125 L 27.03125 -20.09375 L 26.328125 -20.25 C 25.710938 -19.75 24.90625 -19.332031 23.90625 -19 C 22.90625 -18.664062 21.460938 -18.34375 19.578125 -18.03125 C 17.359375 -17.65625 15.757812 -17.015625 14.78125 -16.109375 C 13.800781 -15.210938 13.3125 -13.9375 13.3125 -12.28125 C 13.3125 -10.519531 13.828125 -9.179688 14.859375 -8.265625 C 15.898438 -7.347656 17.347656 -6.890625 19.203125 -6.890625 Z M 19.203125 -6.890625 "/></g></g></g><g fill="#000000" fill-opacity="1"><g transform="translate(385.604349, 923.124881)"><g><path d="M 28.21875 -9.75 L 30.890625 -2.15625 C 29.773438 -1.238281 28.378906 -0.519531 26.703125 0 C 25.023438 0.519531 23.117188 0.78125 20.984375 0.78125 C 16.566406 0.78125 13.207031 -0.421875 10.90625 -2.828125 C 8.601562 -5.242188 7.453125 -8.75 7.453125 -13.34375 L 7.453125 -32.78125 L 1.21875 -32.78125 L 1.21875 -40.9375 L 7.453125 -40.9375 L 7.453125 -48.921875 L 17.734375 -50.59375 L 17.734375 -40.9375 L 29.328125 -40.9375 L 29.328125 -32.78125 L 17.734375 -32.78125 L 17.734375 -14.09375 C 17.734375 -12.0625 18.148438 -10.582031 18.984375 -9.65625 C 19.828125 -8.726562 21.050781 -8.265625 22.65625 -8.265625 C 24.488281 -8.265625 26.082031 -8.757812 27.4375 -9.75 Z M 28.21875 -9.75 "/></g></g></g><g fill="#000000" fill-opacity="1"><g transform="translate(417.385427, 923.124881)"><g/></g></g><g fill="#000000" fill-opacity="1"><g transform="translate(435.297053, 923.124881)"><g><path d="M 29.703125 0 L 18.984375 0 L 18.984375 -21.28125 L 0.265625 -54.21875 L 11.75 -54.21875 L 24.140625 -32.890625 L 25.078125 -32.890625 L 37.203125 -54.21875 L 48.4375 -54.21875 L 29.703125 -21.28125 Z M 29.703125 0 "/></g></g></g><g fill="#000000" fill-opacity="1"><g transform="translate(483.988469, 923.124881)"><g><path d="M 23.765625 0.78125 C 19.765625 0.78125 16.25 -0.0390625 13.21875 -1.6875 C 10.1875 -3.332031 7.835938 -5.742188 6.171875 -8.921875 C 4.503906 -12.097656 3.671875 -15.9375 3.671875 -20.4375 C 3.671875 -24.9375 4.503906 -28.78125 6.171875 -31.96875 C 7.835938 -35.15625 10.1875 -37.570312 13.21875 -39.21875 C 16.25 -40.863281 19.765625 -41.6875 23.765625 -41.6875 C 27.773438 -41.6875 31.289062 -40.863281 34.3125 -39.21875 C 37.34375 -37.570312 39.695312 -35.15625 41.375 -31.96875 C 43.0625 -28.78125 43.90625 -24.9375 43.90625 -20.4375 C 43.90625 -15.9375 43.0625 -12.097656 41.375 -8.921875 C 39.695312 -5.742188 37.34375 -3.332031 34.3125 -1.6875 C 31.289062 -0.0390625 27.773438 0.78125 23.765625 0.78125 Z M 23.765625 -7.9375 C 30.117188 -7.9375 33.296875 -12.101562 33.296875 -20.4375 C 33.296875 -24.757812 32.476562 -27.925781 30.84375 -29.9375 C 29.21875 -31.957031 26.859375 -32.96875 23.765625 -32.96875 C 17.410156 -32.96875 14.234375 -28.789062 14.234375 -20.4375 C 14.234375 -12.101562 17.410156 -7.9375 23.765625 -7.9375 Z M 23.765625 -7.9375 "/></g></g></g><g fill="#000000" fill-opacity="1"><g transform="translate(531.530272, 923.124881)"><g><path d="M 18.734375 0.78125 C 14.128906 0.78125 10.734375 -0.472656 8.546875 -2.984375 C 6.359375 -5.492188 5.265625 -9.097656 5.265625 -13.796875 L 5.265625 -40.90625 L 15.546875 -40.90625 L 15.546875 -15.09375 C 15.546875 -12.59375 16.082031 -10.769531 17.15625 -9.625 C 18.226562 -8.476562 19.890625 -7.90625 22.140625 -7.90625 C 24.984375 -7.90625 27.195312 -8.835938 28.78125 -10.703125 C 30.363281 -12.566406 31.15625 -15.5 31.15625 -19.5 L 31.15625 -40.90625 L 41.421875 -40.90625 L 41.421875 0 L 31.5625 0 L 31.5625 -6.015625 L 30.78125 -6.1875 C 29.46875 -3.84375 27.863281 -2.09375 25.96875 -0.9375 C 24.082031 0.207031 21.671875 0.78125 18.734375 0.78125 Z M 18.734375 0.78125 "/></g></g></g><g fill="#000000" fill-opacity="1"><g transform="translate(578.849582, 923.124881)"><g/></g></g><g fill="#000000" fill-opacity="1"><g transform="translate(596.761207, 923.124881)"><g><path d="M 25.890625 0 L 13.90625 0 L 1.484375 -54.21875 L 12.171875 -54.21875 L 20.359375 -16.09375 L 21.28125 -16.09375 L 31 -54.21875 L 40.171875 -54.21875 L 50.0625 -16.09375 L 51 -16.09375 L 59.234375 -54.21875 L 69.53125 -54.21875 L 57.15625 0 L 45.140625 0 L 35.640625 -34.96875 L 34.859375 -34.96875 Z M 25.890625 0 "/></g></g></g><g fill="#000000" fill-opacity="1"><g transform="translate(667.740184, 923.124881)"><g><path d="M 11.015625 -45.796875 C 9.160156 -45.796875 7.648438 -46.359375 6.484375 -47.484375 C 5.328125 -48.609375 4.75 -50.0625 4.75 -51.84375 C 4.75 -53.601562 5.328125 -55.046875 6.484375 -56.171875 C 7.648438 -57.296875 9.160156 -57.859375 11.015625 -57.859375 C 12.253906 -57.859375 13.351562 -57.597656 14.3125 -57.078125 C 15.28125 -56.554688 16.03125 -55.84375 16.5625 -54.9375 C 17.09375 -54.039062 17.359375 -53.007812 17.359375 -51.84375 C 17.359375 -50.6875 17.09375 -49.648438 16.5625 -48.734375 C 16.03125 -47.816406 15.28125 -47.097656 14.3125 -46.578125 C 13.351562 -46.054688 12.253906 -45.796875 11.015625 -45.796875 Z M 5.890625 0 L 5.890625 -40.90625 L 16.171875 -40.90625 L 16.171875 0 Z M 5.890625 0 "/></g></g></g><g fill="#000000" fill-opacity="1"><g transform="translate(689.768127, 923.124881)"><g><path d="M 16.984375 0.78125 C 13.296875 0.78125 10.484375 -0.210938 8.546875 -2.203125 C 6.609375 -4.191406 5.640625 -7.21875 5.640625 -11.28125 L 5.640625 -57.328125 L 15.90625 -57.328125 L 15.90625 -11.6875 C 15.90625 -9.1875 16.945312 -7.9375 19.03125 -7.9375 C 19.625 -7.9375 20.253906 -8.035156 20.921875 -8.234375 L 21.4375 -8.078125 L 22.359375 -0.1875 C 21.796875 0.113281 21.039062 0.347656 20.09375 0.515625 C 19.15625 0.691406 18.117188 0.78125 16.984375 0.78125 Z M 16.984375 0.78125 "/></g></g></g><g fill="#000000" fill-opacity="1"><g transform="translate(713.279434, 923.124881)"><g><path d="M 16.984375 0.78125 C 13.296875 0.78125 10.484375 -0.210938 8.546875 -2.203125 C 6.609375 -4.191406 5.640625 -7.21875 5.640625 -11.28125 L 5.640625 -57.328125 L 15.90625 -57.328125 L 15.90625 -11.6875 C 15.90625 -9.1875 16.945312 -7.9375 19.03125 -7.9375 C 19.625 -7.9375 20.253906 -8.035156 20.921875 -8.234375 L 21.4375 -8.078125 L 22.359375 -0.1875 C 21.796875 0.113281 21.039062 0.347656 20.09375 0.515625 C 19.15625 0.691406 18.117188 0.78125 16.984375 0.78125 Z M 16.984375 0.78125 "/></g></g></g><g fill="#000000" fill-opacity="1"><g transform="translate(736.790741, 923.124881)"><g/></g></g><g fill="#000000" fill-opacity="1"><g transform="translate(754.702367, 923.124881)"><g><path d="M 17.765625 -54.21875 L 17.765625 -8.96875 L 42.125 -8.96875 L 42.125 0 L 7.046875 0 L 7.046875 -54.21875 Z M 17.765625 -54.21875 "/></g></g></g><g fill="#000000" fill-opacity="1"><g transform="translate(798.609939, 923.124881)"><g><path d="M 40.421875 -18.140625 L 14.125 -18.140625 C 14.425781 -14.578125 15.441406 -11.984375 17.171875 -10.359375 C 18.898438 -8.742188 21.257812 -7.9375 24.25 -7.9375 C 26.601562 -7.9375 28.507812 -8.375 29.96875 -9.25 C 31.425781 -10.125 32.597656 -11.453125 33.484375 -13.234375 L 34.265625 -13.234375 L 41.09375 -8.859375 C 39.757812 -5.992188 37.742188 -3.671875 35.046875 -1.890625 C 32.347656 -0.109375 28.75 0.78125 24.25 0.78125 C 20.019531 0.78125 16.363281 -0.0195312 13.28125 -1.625 C 10.207031 -3.238281 7.835938 -5.632812 6.171875 -8.8125 C 4.503906 -11.988281 3.671875 -15.863281 3.671875 -20.4375 C 3.671875 -25.082031 4.546875 -29 6.296875 -32.1875 C 8.054688 -35.375 10.429688 -37.753906 13.421875 -39.328125 C 16.410156 -40.898438 19.773438 -41.6875 23.515625 -41.6875 C 29.296875 -41.6875 33.722656 -40.148438 36.796875 -37.078125 C 39.878906 -34.015625 41.421875 -29.519531 41.421875 -23.59375 C 41.421875 -21.4375 41.347656 -19.765625 41.203125 -18.578125 Z M 31.59375 -24.78125 C 31.5 -27.894531 30.773438 -30.160156 29.421875 -31.578125 C 28.078125 -33.003906 26.109375 -33.71875 23.515625 -33.71875 C 18.316406 -33.71875 15.265625 -30.738281 14.359375 -24.78125 Z M 31.59375 -24.78125 "/></g></g></g><g fill="#000000" fill-opacity="1"><g transform="translate(843.073757, 923.124881)"><g><path d="M 15.953125 0.78125 C 13.328125 0.78125 11.050781 0.300781 9.125 -0.65625 C 7.195312 -1.625 5.710938 -3.039062 4.671875 -4.90625 C 3.628906 -6.78125 3.109375 -9.023438 3.109375 -11.640625 C 3.109375 -14.066406 3.628906 -16.101562 4.671875 -17.75 C 5.710938 -19.394531 7.316406 -20.738281 9.484375 -21.78125 C 11.660156 -22.832031 14.507812 -23.644531 18.03125 -24.21875 C 20.476562 -24.613281 22.335938 -25.046875 23.609375 -25.515625 C 24.878906 -25.984375 25.734375 -26.515625 26.171875 -27.109375 C 26.617188 -27.703125 26.84375 -28.457031 26.84375 -29.375 C 26.84375 -30.6875 26.382812 -31.6875 25.46875 -32.375 C 24.5625 -33.070312 23.046875 -33.421875 20.921875 -33.421875 C 18.640625 -33.421875 16.472656 -32.910156 14.421875 -31.890625 C 12.367188 -30.878906 10.59375 -29.546875 9.09375 -27.890625 L 8.34375 -27.890625 L 4.046875 -34.375 C 6.117188 -36.675781 8.648438 -38.46875 11.640625 -39.75 C 14.628906 -41.039062 17.894531 -41.6875 21.4375 -41.6875 C 26.851562 -41.6875 30.769531 -40.535156 33.1875 -38.234375 C 35.613281 -35.929688 36.828125 -32.671875 36.828125 -28.453125 L 36.828125 -10.6875 C 36.828125 -8.851562 37.628906 -7.9375 39.234375 -7.9375 C 39.859375 -7.9375 40.46875 -8.046875 41.0625 -8.265625 L 41.578125 -8.125 L 42.3125 -0.96875 C 41.75 -0.59375 40.957031 -0.285156 39.9375 -0.046875 C 38.925781 0.179688 37.816406 0.296875 36.609375 0.296875 C 34.160156 0.296875 32.25 -0.171875 30.875 -1.109375 C 29.5 -2.046875 28.515625 -3.519531 27.921875 -5.53125 L 27.140625 -5.59375 C 25.140625 -1.34375 21.410156 0.78125 15.953125 0.78125 Z M 19.203125 -6.890625 C 21.578125 -6.890625 23.472656 -7.6875 24.890625 -9.28125 C 26.316406 -10.882812 27.03125 -13.109375 27.03125 -15.953125 L 27.03125 -20.09375 L 26.328125 -20.25 C 25.710938 -19.75 24.90625 -19.332031 23.90625 -19 C 22.90625 -18.664062 21.460938 -18.34375 19.578125 -18.03125 C 17.359375 -17.65625 15.757812 -17.015625 14.78125 -16.109375 C 13.800781 -15.210938 13.3125 -13.9375 13.3125 -12.28125 C 13.3125 -10.519531 13.828125 -9.179688 14.859375 -8.265625 C 15.898438 -7.347656 17.347656 -6.890625 19.203125 -6.890625 Z M 19.203125 -6.890625 "/></g></g></g><g fill="#000000" fill-opacity="1"><g transform="translate(886.202569, 923.124881)"><g><path d="M 5.890625 0 L 5.890625 -40.90625 L 15.875 -40.90625 L 15.875 -34.828125 L 16.65625 -34.671875 C 17.644531 -36.953125 18.941406 -38.625 20.546875 -39.6875 C 22.148438 -40.75 24.101562 -41.28125 26.40625 -41.28125 C 28.726562 -41.28125 30.492188 -40.882812 31.703125 -40.09375 L 29.96875 -31.234375 L 29.1875 -31.078125 C 28.519531 -31.347656 27.875 -31.546875 27.25 -31.671875 C 26.632812 -31.796875 25.882812 -31.859375 25 -31.859375 C 22.125 -31.859375 19.929688 -30.847656 18.421875 -28.828125 C 16.921875 -26.816406 16.171875 -23.585938 16.171875 -19.140625 L 16.171875 0 Z M 5.890625 0 "/></g></g></g><g fill="#000000" fill-opacity="1"><g transform="translate(918.280332, 923.124881)"><g><path d="M 5.890625 0 L 5.890625 -40.90625 L 15.765625 -40.90625 L 15.765625 -34.890625 L 16.546875 -34.71875 C 19.085938 -39.363281 23.210938 -41.6875 28.921875 -41.6875 C 33.648438 -41.6875 37.117188 -40.398438 39.328125 -37.828125 C 41.546875 -35.253906 42.65625 -31.507812 42.65625 -26.59375 L 42.65625 0 L 32.375 0 L 32.375 -25.328125 C 32.375 -28.046875 31.828125 -30.003906 30.734375 -31.203125 C 29.648438 -32.398438 27.910156 -33 25.515625 -33 C 22.578125 -33 20.285156 -32.046875 18.640625 -30.140625 C 16.992188 -28.242188 16.171875 -25.253906 16.171875 -21.171875 L 16.171875 0 Z M 5.890625 0 "/></g></g></g></svg>